# xmcd
#
# Track frame offsets:
#	150
#	13367
#	27318
#	43765
#	64048
#	83610
#	101779
#	124018
#	150071
#	164167
#	174023
#	190058
#	203211
#	217478
#	234956
#	247035
#	266251
#	282481
#
# Disc length: 4021 seconds
#
# Revision: 1
# Processed by: cddbd v1.5.2PL0 Copyright (c) Steve Scherf et al.
# Submitted via: audiograbber 1.83.01
#
DISCID=fa0fb312
DTITLE=Various  - Motown Duets CD 1
DYEAR=2004
DGENRE=Soul
TTITLE0=Marvin Gaye and Kim Weston - It Takes Two
TTITLE1=Diana Ross and Marvin gaye - You Are Everything
TTITLE2=Billy Preston and Syreeta - With You I'm Born Again
TTITLE3=Lionel Richie and Diana Ross - Endless Love
TTITLE4=Jermaine Jackson and Syreeta - Stay With Love
TTITLE5=Dennis Edwards and Siedah Garrett - Don't Look Any Further
TTITLE6=Shanice and Johnny Gill - Silent Prayer
TTITLE7=Rick James and Teena Marie - Fire And Desire
TTITLE8=The Four Tops and The Supremes - River Deep Mountain High
TTITLE9=Marvin Gaye and Tammi Terrell - Ain't Nothing Like The Real Thing
TTITLE10=Smokey Robinson and Barbara Mitchell - Blame It On Love
TTITLE11=Jimmy Ruffin and Davis Ruffin - Turn Back The Hands Of Time
TTITLE12=The Supremes and The Four Tops - A Taste Of Honey
TTITLE13=Bruce Willis and Bonnie Pointer - Respect Yourself
TTITLE14=Edwin Starr and Blinky Williams - We'll Find A Way
TTITLE15=Syreeta and Smokey Robinson - First Time On A Ferris Wheel
TTITLE16=Diana Ross and Marvin Gaye - You're A special Part Of Me
TTITLE17=98 Degrees and Stevie Wonder - True To Your Heart
EXTD=
EXTT0=
EXTT1=
EXTT2=
EXTT3=
EXTT4=
EXTT5=
EXTT6=
EXTT7=
EXTT8=
EXTT9=
EXTT10=
EXTT11=
EXTT12=
EXTT13=
EXTT14=
EXTT15=
EXTT16=
EXTT17=
PLAYORDER=
